PathFileType	4	(X/Y/Z)	/Users/itak/Documents/Research/Walk-IL/dataset/trc/00320_00011.trc
DataRate	CameraRate	NumFrames	NumMarkers	Units	OrigDataRate	OrigDataStartFrame	OrigNumFrames
100.000000	100.000000	4	54	mm	100.000000	0	539
Frame#	Time	RPSI			LPSI			L3			STRN			T10			C7			CLAV			RBAK			LBAK			LSHO			LUPA			LAEL			LAOL			LWTS			LWPS			LFRA			LIFD			LHPS			RSHO			RUPA			RAEL			RAOL			RWTS			RWPS			RFRA			RIFD			RHTS			RHPS			RBHD			LFHD			RFHD			LBHD			LHIP			RHIP			RASI			LASI			LKNE			LTHI			LANK			LTIP			LTOE			LMT1			LMT5			LHEE			RKNE			RTHI			RANK			RTIP			RTOE			RMT1			RMT5			RHEE			LHTS			*53			
		X1	Y1	Z1	X2	Y2	Z2	X3	Y3	Z3	X4	Y4	Z4	X5	Y5	Z5	X6	Y6	Z6	X7	Y7	Z7	X8	Y8	Z8	X9	Y9	Z9	X10	Y10	Z10	X11	Y11	Z11	X12	Y12	Z12	X13	Y13	Z13	X14	Y14	Z14	X15	Y15	Z15	X16	Y16	Z16	X17	Y17	Z17	X18	Y18	Z18	X19	Y19	Z19	X20	Y20	Z20	X21	Y21	Z21	X22	Y22	Z22	X23	Y23	Z23	X24	Y24	Z24	X25	Y25	Z25	X26	Y26	Z26	X27	Y27	Z27	X28	Y28	Z28	X29	Y29	Z29	X30	Y30	Z30	X31	Y31	Z31	X32	Y32	Z32	X33	Y33	Z33	X34	Y34	Z34	X35	Y35	Z35	X36	Y36	Z36	X37	Y37	Z37	X38	Y38	Z38	X39	Y39	Z39	X40	Y40	Z40	X41	Y41	Z41	X42	Y42	Z42	X43	Y43	Z43	X44	Y44	Z44	X45	Y45	Z45	X46	Y46	Z46	X47	Y47	Z47	X48	Y48	Z48	X49	Y49	Z49	X50	Y50	Z50	X51	Y51	Z51	X52	Y52	Z52	X53	Y53	Z53	X54	Y54	Z54	

1	0	-1464.517578125	984.1279907226562	37.36526870727539	-1461.544555664062	984.779541015625	-92.05952453613281	-1466.653442382812	1039.064819335938	-23.95561599731445	-1241.249633789062	1223.580078125	-31.58123397827148	-1484.766479492188	1159.894409179688	-36.4761962890625	-1445.596801757812	1408.387451171875	-54.85562133789062	-1288.090576171875	1347.759033203125	-40.50954437255859	-1494.606567382812	1270.57470703125	13.36195755004883	-1449.618286132812	1369.67041015625	-156.8013916015625	-1359.956787109375	1383.711181640625	-207.217529296875	-1372.576171875	1262.552124023438	-274.198974609375	-1348.6435546875	1057.690063476562	-278.8399963378906	-1415.255859375	1044.400024414062	-227.8339233398438	-1253.906616210938	816.2562255859375	-224.5247802734375	-1288.62890625	803.7736206054688	-281.3057250976562	-1331.042114257812	953.5996704101562	-281.79443359375	-1241.802368164062	656.820068359375	-213.9634094238281	-1289.120849609375	733.0459594726562	-272.9167175292969	-1394.53955078125	1395.883911132812	110.9349060058594	-1408.2578125	1331.401611328125	175.8501739501953	-1393.508178710938	1063.87841796875	215.4434051513672	-1433.7626953125	1053.43701171875	129.1838989257812	-1272.6103515625	839.9649658203125	176.7139892578125	-1312.378295898438	824.0031127929688	241.1929168701172	-1367.172485351562	997.4830932617188	225.9214324951172	-1252.40771484375	666.814697265625	194.6840209960938	-1241.682250976562	740.390869140625	193.7085266113281	-1294.869506835938	740.696533203125	239.0206451416016	-1437.631591796875	1602.070190429688	10.54462242126465	-1245.67041015625	1637.192993164062	-66.63660430908203	-1279.079833984375	1637.095947265625	29.10427665710449	-1415.0390625	1592.79443359375	-131.9609375	-1372.919067382812	925.3878784179688	-193.0202789306641	-1388.686401367188	927.7911376953125	148.0545654296875	-1281.4521484375	955.9383544921875	107.8450469970703	-1254.276123046875	950.5599975585938	-130.1956787109375	-1339.419799804688	466.552001953125	-171.3977355957031	-1334.407836914062	606.6742553710938	-181.6797027587891	-1445.04833984375	50.18410873413086	-154.8367004394531	-1392.774047851562	251.2891082763672	-174.2862548828125	-1242.272583007812	46.51198196411133	-88.19505310058594	-1311.461547851562	33.41554641723633	-49.80376052856445	-1318.579345703125	45.47565841674805	-163.2218170166016	-1481.669311523438	46.20407485961914	-88.57295227050781	-1374.232421875	462.0072021484375	119.3367691040039	-1323.599731445312	716.4194946289062	147.5092620849609	-1451.786254882812	54.38619613647461	83.98406219482422	-1374.151977539062	341.8361511230469	107.1911163330078	-1258.310913085938	47.08590698242188	42.17485427856445	-1310.274291992188	41.26142120361328	-3.460753202438354	-1351.18212890625	41.73894882202148	107.5235137939453	-1500.9228515625	54.70215225219727	34.50653839111328	-1237.746826171875	739.0446166992188	-237.0211334228516	nan	nan	nan	
2	0.01	-1464.449951171875	984.1437377929688	37.34586715698242	-1461.51123046875	984.7876586914062	-92.09838104248047	-1466.6015625	1039.052856445312	-23.96757316589355	-1241.18994140625	1223.593872070312	-31.56888198852539	-1484.733764648438	1159.916748046875	-36.46492385864258	-1445.538818359375	1408.374877929688	-54.85205078125	-1288.031982421875	1347.74755859375	-40.47685623168945	-1494.572509765625	1270.602905273438	13.37218379974365	-1449.510620117188	1369.657348632812	-156.7887115478516	-1359.891479492188	1383.695678710938	-207.2218933105469	-1372.530517578125	1262.546020507812	-274.2071838378906	-1348.58984375	1057.6796875	-278.8652648925781	-1415.209228515625	1044.397338867188	-227.8441619873047	-1253.875366210938	816.2659912109375	-224.5665893554688	-1288.621704101562	803.7578125	-281.359619140625	-1330.9970703125	953.5912475585938	-281.8210144042969	-1241.883178710938	656.7443237304688	-213.9313507080078	-1289.100708007812	733.0327758789062	-272.9584045410156	-1394.514404296875	1395.892700195312	110.9435119628906	-1408.214111328125	1331.408813476562	175.8330078125	-1393.473388671875	1063.86767578125	215.4398345947266	-1433.726196289062	1053.442749023438	129.1889495849609	-1272.558349609375	839.94482421875	176.7076873779297	-1312.351196289062	823.984619140625	241.1844177246094	-1367.13330078125	997.4948120117188	225.9292297363281	-1252.437622070312	666.8236694335938	194.6999206542969	-1241.693359375	740.373046875	193.7002716064453	-1294.862060546875	740.6805419921875	239.0122833251953	-1437.517944335938	1602.084594726562	10.62785053253174	-1245.617309570312	1637.229858398438	-66.65117645263672	-1278.999633789062	1637.090087890625	29.07252311706543	-1415.037841796875	1592.82177734375	-131.8877563476562	-1372.876220703125	925.389892578125	-193.0467224121094	-1388.66015625	927.7969970703125	148.0468597412109	-1281.48681640625	955.945556640625	107.7768249511719	-1254.13525390625	950.5866088867188	-130.2004852294922	-1339.381591796875	466.5484008789062	-171.3843688964844	-1334.362548828125	606.6818237304688	-181.6753387451172	-1445.052124023438	50.18623733520508	-154.8410034179688	-1392.758666992188	251.2914123535156	-174.2877960205078	-1242.266357421875	46.51034164428711	-88.19915771484375	-1311.473999023438	33.41003036499023	-49.79899978637695	-1318.573486328125	45.46849060058594	-163.2294006347656	-1481.66943359375	46.20489120483398	-88.57273864746094	-1374.2314453125	462.0098571777344	119.3509674072266	-1323.598876953125	716.4182739257812	147.5244445800781	-1451.783569335938	54.39091491699219	83.97946166992188	-1374.153198242188	341.8301696777344	107.199592590332	-1258.3154296875	47.08601379394531	42.17872619628906	-1310.284301757812	41.20512771606445	-3.422729969024658	-1351.154541015625	41.71728134155273	107.5006332397461	-1500.92431640625	54.70522308349609	34.50470733642578	-1237.710693359375	739.0364379882812	-237.2142333984375	nan	nan	nan	
3	0.02	-1464.357299804688	984.1641845703125	37.32291412353516	-1461.469970703125	984.7982788085938	-92.14505767822266	-1466.54052734375	1039.0400390625	-23.97831153869629	-1241.117065429688	1223.611572265625	-31.55069541931152	-1484.692504882812	1159.942016601562	-36.45240020751953	-1445.467895507812	1408.361450195312	-54.84454345703125	-1287.95556640625	1347.736572265625	-40.43853378295898	-1494.528198242188	1270.634887695312	13.38486576080322	-1449.383544921875	1369.642944335938	-156.7781677246094	-1359.807983398438	1383.678833007812	-207.2271270751953	-1372.470825195312	1262.53955078125	-274.2185974121094	-1348.521606445312	1057.668701171875	-278.8959655761719	-1415.147705078125	1044.394897460938	-227.8570404052734	-1253.834350585938	816.27783203125	-224.6120910644531	-1288.607177734375	803.741943359375	-281.42431640625	-1330.93994140625	953.5830688476562	-281.8553161621094	-1241.95751953125	656.6722412109375	-213.8928680419922	-1289.078979492188	733.0198364257812	-273.01123046875	-1394.480590820312	1395.905395507812	110.9576110839844	-1408.15869140625	1331.418212890625	175.8117218017578	-1393.431030273438	1063.851928710938	215.4324645996094	-1433.6787109375	1053.448120117188	129.1923065185547	-1272.498901367188	839.9217529296875	176.701171875	-1312.32080078125	823.9636840820312	241.1740264892578	-1367.083129882812	997.5081787109375	225.9371795654297	-1252.4765625	666.8245239257812	194.7171173095703	-1241.708984375	740.350341796875	193.6939697265625	-1294.855346679688	740.6617431640625	239.0054473876953	-1437.3779296875	1602.102416992188	10.73194313049316	-1245.55859375	1637.26318359375	-66.68053436279297	-1278.904541015625	1637.08154296875	29.03693962097168	-1415.037963867188	1592.859252929688	-131.7950439453125	-1372.812622070312	925.3933715820312	-193.0742797851562	-1388.623657226562	927.8057250976562	148.0376739501953	-1281.50537109375	955.9524536132812	107.7164077758789	-1253.953002929688	950.625244140625	-130.2102508544922	-1339.338256835938	466.5440368652344	-171.3686370849609	-1334.307006835938	606.68994140625	-181.6703338623047	-1445.056030273438	50.18831253051758	-154.8451080322266	-1392.7412109375	251.2935028076172	-174.2890167236328	-1242.261596679688	46.50876617431641	-88.20390319824219	-1311.485717773438	33.40485382080078	-49.79468536376953	-1318.567626953125	45.46144485473633	-163.2364349365234	-1481.66943359375	46.20561981201172	-88.57254791259766	-1374.229736328125	462.0121154785156	119.3667907714844	-1323.590942382812	716.4125366210938	147.5429382324219	-1451.778198242188	54.39682388305664	83.97378540039062	-1374.153930664062	341.824951171875	107.2074737548828	-1258.31787109375	47.08627700805664	42.1809196472168	-1310.294189453125	41.153076171875	-3.385925769805908	-1351.137573242188	41.70550918579102	107.4856109619141	-1500.92578125	54.70799255371094	34.50300598144531	-1237.639892578125	739.04443359375	-237.4363708496094	nan	nan	nan	
4	0.03	-1464.239990234375	984.1884765625	37.29703521728516	-1461.421630859375	984.8114624023438	-92.19585418701172	-1466.474609375	1039.027709960938	-23.98581504821777	-1241.035034179688	1223.63232421875	-31.52625274658203	-1484.643676757812	1159.968505859375	-36.43964385986328	-1445.387817382812	1408.348510742188	-54.83212661743164	-1287.86328125	1347.727905273438	-40.39737701416016	-1494.47607421875	1270.668823242188	13.39874935150146	-1449.24462890625	1369.628540039062	-156.7715454101562	-1359.708251953125	1383.662475585938	-207.2328338623047	-1372.398071289062	1262.533447265625	-274.2331237792969	-1348.440673828125	1057.658325195312	-278.9302978515625	-1415.072998046875	1044.39306640625	-227.8719482421875	-1253.78564453125	816.290771484375	-224.6562042236328	-1288.5830078125	803.728271484375	-281.4956665039062	-1330.872314453125	953.5763549804688	-281.8957824707031	-1242.012573242188	656.6123046875	-213.8532409667969	-1289.057250976562	733.0093994140625	-273.0729675292969	-1394.437622070312	1395.922119140625	110.9784469604492	-1408.093627929688	1331.429321289062	175.7872772216797	-1393.3837890625	1063.832275390625	215.4217834472656	-1433.621459960938	1053.451538085938	129.1925659179688	-1272.43994140625	839.8959350585938	176.6949310302734	-1312.2900390625	823.9423217773438	241.1624145507812	-1367.023681640625	997.52197265625	225.9438018798828	-1252.525146484375	666.8156127929688	194.7359466552734	-1241.728393554688	740.3228149414062	193.6911926269531	-1294.850952148438	740.6423950195312	239.0021820068359	-1437.21875	1602.122436523438	10.8535327911377	-1245.500244140625	1637.2861328125	-66.72761535644531	-1278.80078125	1637.070068359375	29.00071334838867	-1415.039916992188	1592.90673828125	-131.6854858398438	-1372.725830078125	925.3984985351562	-193.0984344482422	-1388.5771484375	927.8179321289062	148.0273590087891	-1281.49951171875	955.9570922851562	107.6723251342773	-1253.738403320312	950.6724853515625	-130.2233276367188	-1339.294067382812	466.5398254394531	-171.3518218994141	-1334.244384765625	606.6976318359375	-181.6649475097656	-1445.059448242188	50.19004440307617	-154.848388671875	-1392.7236328125	251.2957000732422	-174.2897644042969	-1242.258911132812	46.50759887695312	-88.20885467529297	-1311.494995117188	33.40073394775391	-49.79110336303711	-1318.562133789062	45.45504760742188	-163.2420196533203	-1481.669555664062	46.20616912841797	-88.57240295410156	-1374.2265625	462.0130310058594	119.3828659057617	-1323.574096679688	716.4010009765625	147.5638580322266	-1451.77001953125	54.40358352661133	83.96725463867188	-1374.153686523438	341.8212890625	107.2138824462891	-1258.3173828125	47.086669921875	42.18099594116211	-1310.302612304688	41.11172866821289	-3.354670286178589	-1351.1337890625	41.70547866821289	107.480583190918	-1500.927001953125	54.71002960205078	34.50165557861328	-1237.52099609375	739.080810546875	-237.6609191894531	nan	nan	nan	
